<svg xmlns="http://www.w3.org/2000/svg" viewBox="0 0 1180 610" width="100%" height="100%" style="font-family: 'Inter', -apple-system, BlinkMacSystemFont, 'Segoe UI', Roboto, Helvetica, Arial, sans-serif;">
  <defs>
    <!-- ===== CSS VARIABLES + THEME SWITCHING ===== -->
    <style>
      :root {
        /* Light Theme (default) */
        --bg-start: #FFFFFF;
        --bg-end: #F8FAFC;
        --panel-fill: #F8FAFC;
        --panel-stroke: rgba(15,23,42,0.08);
        --text-primary: #0F172A;
        --text-secondary: #475569;
        --accent1: #2563EB;
        --accent2: #06B6D4;
        --accent3: #10B981;
        --ascii1: #2563EB;
        --ascii2: #06B6D4;
        --glow-float: rgba(37,99,235,0.06);
        --glow-float-dark: rgba(37,99,235,0.05);
        --pill-bg: rgba(15,23,42,0.04);
        --pill-stroke: rgba(15,23,42,0.1);
        --pill-hover-text: #0F172A;
        --social-color: #475569;
        --social-hover: #0F172A;
        --shimmer-start: rgba(15,23,42,0);
        --shimmer-mid: rgba(15,23,42,0.05);
        --scanline-color: rgba(37,99,235,0.1);
        --cursor-color: #2563EB;
        --glass-reflect: rgba(255,255,255,0.4);
        --particle-color1: #2563EB;
        --particle-color2: #06B6D4;
        --particle-color3: #10B981;
        --dot-red: #EF4444;
        --dot-yellow: #F59E0B;
        --dot-green: #10B981;
        --noise-opacity: 0.04;
      }

      @media (prefers-color-scheme: dark) {
        :root {
          /* Dark Theme */
          --bg-start: #030712;
          --bg-end: #0F172A;
          --panel-fill: #0F172A;
          --panel-stroke: rgba(255,255,255,0.08);
          --text-primary: #F8FAFC;
          --text-secondary: #94A3B8;
          --accent1: #7C3AED;
          --accent2: #22D3EE;
          --accent3: #10B981;
          --ascii1: #22D3EE;
          --ascii2: #A855F7;
          --glow-float: rgba(124,58,237,0.15);
          --glow-float-dark: rgba(124,58,237,0.15);
          --pill-bg: rgba(255,255,255,0.05);
          --pill-stroke: rgba(255,255,255,0.1);
          --pill-hover-text: #F8FAFC;
          --social-color: #94A3B8;
          --social-hover: #F8FAFC;
          --shimmer-start: rgba(255,255,255,0);
          --shimmer-mid: rgba(255,255,255,0.1);
          --scanline-color: rgba(34,211,238,0.15);
          --cursor-color: #22D3EE;
          --glass-reflect: rgba(255,255,255,0.05);
          --particle-color1: #22D3EE;
          --particle-color2: #A855F7;
          --particle-color3: #10B981;
          --noise-opacity: 0.06;
        }
      }
    </style>

    <!-- Background Gradient -->
    <linearGradient id="bgGrad" x1="0%" y1="0%" x2="100%" y2="100%">
      <stop offset="0%" stop-color="var(--bg-start)" />
      <stop offset="100%" stop-color="var(--bg-end)" />
    </linearGradient>

    <!-- Accent Gradient -->
    <linearGradient id="accentGrad" x1="0%" y1="0%" x2="100%" y2="100%">
      <stop offset="0%" stop-color="var(--accent1)" />
      <stop offset="50%" stop-color="var(--accent2)" />
      <stop offset="100%" stop-color="var(--accent3)" />
      <animate attributeName="x1" values="0%;100%;0%" dur="12s" repeatCount="indefinite" />
      <animate attributeName="x2" values="100%;0%;100%" dur="12s" repeatCount="indefinite" />
    </linearGradient>

    <!-- ASCII Gradient -->
    <linearGradient id="asciiGrad" x1="0%" y1="0%" x2="100%" y2="0%">
      <stop offset="0%" stop-color="var(--ascii1)" />
      <stop offset="100%" stop-color="var(--ascii2)" />
      <animate attributeName="x1" values="0%;100%;0%" dur="8s" repeatCount="indefinite" />
      <animate attributeName="x2" values="100%;0%;100%" dur="8s" repeatCount="indefinite" />
    </linearGradient>

    <!-- Border Shimmer -->
    <linearGradient id="shimmer" x1="0%" y1="0%" x2="100%" y2="100%">
      <stop offset="0%" stop-color="var(--shimmer-start)" />
      <stop offset="50%" stop-color="var(--shimmer-mid)" />
      <stop offset="100%" stop-color="var(--shimmer-start)" />
    </linearGradient>

    <!-- Glassmorphism Filters -->
    <filter id="glassBlur" x="-10%" y="-10%" width="120%" height="120%">
      <feGaussianBlur stdDeviation="8" result="blur" />
      <feComposite in="SourceGraphic" in2="blur" operator="over" />
    </filter>

    <filter id="glowPill" x="-30%" y="-30%" width="160%" height="160%">
      <feGaussianBlur stdDeviation="6" result="blur" />
      <feMerge>
        <feMergeNode in="blur" />
        <feMergeNode in="SourceGraphic" />
      </feMerge>
    </filter>

    <filter id="noiseFilter">
      <feTurbulence type="fractalNoise" baseFrequency="0.7" numOctaves="3" stitchTiles="stitch" />
      <feColorMatrix type="matrix" values="1 0 0 0 0, 0 1 0 0 0, 0 0 1 0 0, 0 0 0 var(--noise-opacity) 0" />
    </filter>

    <!-- Typing Clip Path -->
    <clipPath id="typingReveal">
      <rect x="510" y="155" width="0" height="35">
        <animate id="tr1" attributeName="width" values="0;280" dur="2s" begin="2s" fill="freeze" />
        <animate id="tr2" attributeName="width" values="280;0" dur="0.1s" begin="4.5s" fill="freeze" />
        <animate id="tr3" attributeName="width" values="0;310" dur="2s" begin="4.6s" fill="freeze" />
        <animate id="tr4" attributeName="width" values="310;0" dur="0.1s" begin="7s" fill="freeze" />
        <animate id="tr5" attributeName="width" values="0;280" dur="2s" begin="7.1s" fill="freeze" />
      </rect>
    </clipPath>

    <!-- Floating Glow -->
    <radialGradient id="floatGlow" cx="50%" cy="50%" r="50%">
      <stop offset="0%" stop-color="var(--accent1)" stop-opacity="0" />
      <stop offset="100%" stop-color="var(--accent1)" stop-opacity="0" />
    </radialGradient>
  </defs>

  <style>
    .pill-group { cursor: default; }
    .pill-bg { transition: all 0.3s ease; }
    .pill-group:hover .pill-bg {
      transform: scale(1.1);
      stroke: var(--accent1);
      filter: url(#glowPill);
    }
    .pill-text { transition: fill 0.3s ease; fill: var(--text-secondary); }
    .pill-group:hover .pill-text { fill: var(--pill-hover-text); }

    .social-icon { transition: all 0.3s ease; cursor: pointer; fill: var(--social-color); }
    .social-icon:hover { fill: var(--social-hover); transform: translateY(-4px); }
  </style>

  <!-- Base Canvas -->
  <rect width="1180" height="610" rx="24" fill="url(#bgGrad)" />

  <!-- Background Radial Glows -->
  <circle cx="15%" cy="20%" r="35%" fill="var(--accent1)" opacity="0.05" filter="url(#glassBlur)">
    <animate attributeName="opacity" values="0.03;0.08;0.03" dur="6s" repeatCount="indefinite" />
  </circle>
  <circle cx="85%" cy="80%" r="40%" fill="var(--accent2)" opacity="0.04" filter="url(#glassBlur)">
    <animate attributeName="opacity" values="0.02;0.06;0.02" dur="8s" repeatCount="indefinite" />
  </circle>

  <!-- Animated Particles -->
  <g fill="var(--particle-color1)">
    <circle cx="10%" cy="30%" r="2.5" opacity="0.6">
      <animate attributeName="cy" values="30%;70%;30%" dur="10s" repeatCount="indefinite" />
      <animate attributeName="opacity" values="0.2;0.8;0.2" dur="10s" repeatCount="indefinite" />
    </circle>
    <circle cx="5%" cy="80%" r="1.5" opacity="0.4">
      <animate attributeName="cy" values="80%;20%;80%" dur="14s" repeatCount="indefinite" />
    </circle>
    <circle cx="95%" cy="20%" r="2" fill="var(--particle-color2)" opacity="0.5">
      <animate attributeName="cy" values="20%;90%;20%" dur="12s" repeatCount="indefinite" />
    </circle>
    <circle cx="92%" cy="60%" r="3" fill="var(--particle-color3)" opacity="0.4">
      <animate attributeName="cy" values="60%;10%;60%" dur="16s" repeatCount="indefinite" />
    </circle>
  </g>

  <!-- LEFT SECTION: ASCII Portrait -->
  <g>
    <rect x="30" y="40" width="400" height="530" rx="16" fill="var(--panel-fill)" stroke="var(--panel-stroke)" stroke-width="2" />
    <rect x="30" y="40" width="400" height="530" rx="16" fill="url(#floatGlow)" style="pointer-events:none;" />
    
    <linearGradient id="glassReflectLeft" x1="0%" y1="0%" x2="100%" y2="100%">
      <stop offset="0%" stop-color="var(--glass-reflect)" />
      <stop offset="100%" stop-color="rgba(255,255,255,0)" />
    </linearGradient>
    <rect x="30" y="40" width="400" height="530" rx="16" fill="url(#glassReflectLeft)" style="pointer-events:none;" />

    <g font-family="'Fira Code', 'JetBrains Mono', monospace" font-size="16" font-weight="bold" fill="url(#asciiGrad)">
      <animateTransform attributeName="transform" type="translate" values="0,0; 0,-6; 0,0" dur="5s" repeatCount="indefinite" />
      
      <text x="60" y="100">   ╔═══════════════════╗   <animate attributeName="opacity" from="0" to="1" dur="0.3s" begin="0.5s" fill="freeze" /></text>
      <text x="60" y="125">   ║  ▄▄▄▄▄▄▄▄▄▄▄▄▄  ║   <animate attributeName="opacity" from="0" to="1" dur="0.3s" begin="0.8s" fill="freeze" /></text>
      <text x="60" y="150">   ║  █░░░░░░░░░░░░░█  ║   <animate attributeName="opacity" from="0" to="1" dur="0.3s" begin="1.1s" fill="freeze" /></text>
      <text x="60" y="175">   ║  █░░▄▀▄░░░░▄▀▄░█  ║   <animate attributeName="opacity" from="0" to="1" dur="0.3s" begin="1.4s" fill="freeze" /></text>
      <text x="60" y="200">   ║  █░░▀█▀░░░░▀█▀░█  ║   <animate attributeName="opacity" from="0" to="1" dur="0.3s" begin="1.7s" fill="freeze" /></text>
      <text x="60" y="225">   ║  █░░░░░░░░░░░░░█  ║   <animate attributeName="opacity" from="0" to="1" dur="0.3s" begin="2.0s" fill="freeze" /></text>
      <text x="60" y="250">   ║  █░░▄▄▄▄▄▄▄▄▄░█  ║   <animate attributeName="opacity" from="0" to="1" dur="0.3s" begin="2.3s" fill="freeze" /></text>
      <text x="60" y="275">   ║  █░░▀▀▀▀▀▀▀▀▀░█  ║   <animate attributeName="opacity" from="0" to="1" dur="0.3s" begin="2.6s" fill="freeze" /></text>
      <text x="60" y="300">   ║  ▀▀▀▀▀▀▀▀▀▀▀▀▀  ║   <animate attributeName="opacity" from="0" to="1" dur="0.3s" begin="2.9s" fill="freeze" /></text>
      <text x="60" y="325">   ╚═══════════════════╝   <animate attributeName="opacity" from="0" to="1" dur="0.3s" begin="3.2s" fill="freeze" /></text>
      
      <text x="310" y="325" fill="var(--cursor-color)">
        <animate attributeName="opacity" values="1;0;1" dur="0.8s" repeatCount="indefinite" />
        █
      </text>
    </g>

    <rect x="40" y="50" width="380" height="3" fill="var(--scanline-color)" rx="1.5">
      <animate attributeName="y" values="50;510;50" dur="4s" repeatCount="indefinite" />
    </rect>
  </g>

  <!-- RIGHT SECTION: Terminal Window -->
  <g>
    <rect x="470" y="40" width="680" height="530" rx="16" fill="var(--panel-fill)" stroke="var(--panel-stroke)" stroke-width="2" />
    <rect x="470" y="40" width="680" height="530" rx="16" fill="url(#floatGlow)" style="pointer-events:none;" />

    <linearGradient id="glassReflectRight" x1="0%" y1="0%" x2="100%" y2="100%">
      <stop offset="0%" stop-color="var(--glass-reflect)" />
      <stop offset="100%" stop-color="rgba(255,255,255,0)" />
    </linearGradient>
    <rect x="470" y="40" width="680" height="530" rx="16" fill="url(#glassReflectRight)" style="pointer-events:none;" />

    <!-- Terminal Header -->
    <circle cx="500" cy="70" r="6" fill="var(--dot-red)" />
    <circle cx="522" cy="70" r="6" fill="var(--dot-yellow)" />
    <circle cx="544" cy="70" r="6" fill="var(--dot-green)" />
    <rect x="470" y="85" width="680" height="1" fill="var(--panel-stroke)" />

    <!-- Content -->
    <text x="510" y="130" font-size="32" font-weight="700" fill="var(--text-primary)">
      Hi, I'm <tspan fill="url(#accentGrad)">Jane Doe</tspan>
    </text>

    <text x="510" y="180" font-size="22" fill="var(--text-secondary)" font-weight="500">I'm a</text>
    
    <g clip-path="url(#typingReveal)">
      <text x="575" y="180" font-size="22" fill="url(#accentGrad)" font-weight="600">Frontend Engineer</text>
      <text x="575" y="180" font-size="22" fill="url(#accentGrad)" font-weight="600" opacity="0">Full Stack Developer</text>
      <text x="575" y="180" font-size="22" fill="url(#accentGrad)" font-weight="600" opacity="0">Open Source Contributor</text>
    </g>

    <text x="510" y="180" font-size="22" fill="var(--cursor-color)" font-weight="600">
      <animate attributeName="x" values="510;790;790;510;510;820;820;510;510;790;790;510" dur="10s" repeatCount="indefinite" />
      <animate attributeName="opacity" values="1;0;1" dur="0.7s" repeatCount="indefinite" />
      |
    </text>

    <!-- Bio Items -->
    <g opacity="0">
      <animate attributeName="opacity" from="0" to="1" dur="0.4s" begin="5s" fill="freeze" />
      <text x="510" y="240" font-size="16" fill="var(--text-secondary)">📍 San Francisco, CA</text>
    </g>
    <g opacity="0">
      <animate attributeName="opacity" from="0" to="1" dur="0.4s" begin="5.5s" fill="freeze" />
      <text x="510" y="270" font-size="16" fill="var(--text-secondary)">🎓 B.S. Computer Science</text>
    </g>
    <g opacity="0">
      <animate attributeName="opacity" from="0" to="1" dur="0.4s" begin="6s" fill="freeze" />
      <text x="510" y="300" font-size="16" fill="var(--text-secondary)">🔭 Currently building AI tools</text>
    </g>
    <g opacity="0">
      <animate attributeName="opacity" from="0" to="1" dur="0.4s" begin="6.5s" fill="freeze" />
      <text x="510" y="330" font-size="16" fill="var(--text-secondary)">🌐 janedoe.dev</text>
    </g>
    <g opacity="0">
      <animate attributeName="opacity" from="0" to="1" dur="0.4s" begin="7s" fill="freeze" />
      <text x="510" y="360" font-size="16" fill="var(--text-secondary)">📧 jane@example.com</text>
    </g>

    <!-- Skills Pills -->
    <g opacity="0">
      <animate attributeName="opacity" from="0" to="1" dur="0.5s" begin="7.5s" fill="freeze" />
      
      <g class="pill-group" transform="translate(510, 420)">
        <rect class="pill-bg" width="100" height="36" rx="18" fill="var(--pill-bg)" stroke="var(--pill-stroke)" />
        <text class="pill-text" x="50" y="23" text-anchor="middle" font-size="14" font-weight="500">React</text>
      </g>
      <g class="pill-group" transform="translate(630, 420)">
        <rect class="pill-bg" width="100" height="36" rx="18" fill="var(--pill-bg)" stroke="var(--pill-stroke)" />
        <text class="pill-text" x="50" y="23" text-anchor="middle" font-size="14" font-weight="500">Next.js</text>
      </g>
      <g class="pill-group" transform="translate(750, 420)">
        <rect class="pill-bg" width="100" height="36" rx="18" fill="var(--pill-bg)" stroke="var(--pill-stroke)" />
        <text class="pill-text" x="50" y="23" text-anchor="middle" font-size="14" font-weight="500">Node.js</text>
      </g>

      <g class="pill-group" transform="translate(510, 470)">
        <rect class="pill-bg" width="100" height="36" rx="18" fill="var(--pill-bg)" stroke="var(--pill-stroke)" />
        <text class="pill-text" x="50" y="23" text-anchor="middle" font-size="14" font-weight="500">TypeScript</text>
      </g>
      <g class="pill-group" transform="translate(630, 470)">
        <rect class="pill-bg" width="100" height="36" rx="18" fill="var(--pill-bg)" stroke="var(--pill-stroke)" />
        <text class="pill-text" x="50" y="23" text-anchor="middle" font-size="14" font-weight="500">Tailwind</text>
      </g>
      <g class="pill-group" transform="translate(750, 470)">
        <rect class="pill-bg" width="100" height="36" rx="18" fill="var(--pill-bg)" stroke="var(--pill-stroke)" />
        <text class="pill-text" x="50" y="23" text-anchor="middle" font-size="14" font-weight="500">Python</text>
      </g>
    </g>

    <!-- Social Icons -->
    <g opacity="0">
      <animate attributeName="opacity" from="0" to="1" dur="0.5s" begin="8s" fill="freeze" />
      
      <a href="#">
        <g transform="translate(510, 530) scale(1.6)">
          <path d="M12 0C5.37 0 0 5.37 0 12c0 5.31 3.435 9.795 8.205 11.385.6.105.825-.255.825-.57 0-.285-.015-1.23-.015-2.235-3.015.555-3.795-.735-4.035-1.41-.135-.345-.72-1.41-1.23-1.695-.42-.225-1.02-.78-.015-.795.945-.015 1.62.87 1.845 1.23 1.08 1.815 2.805 1.305 3.495.99.105-.78.42-1.305.765-1.605-2.67-.3-5.46-1.335-5.46-5.925 0-1.305.465-2.385 1.23-3.225-.12-.3-.54-1.53.12-3.15 0 0 1.005-.315 3.3 1.23.96-.27 1.98-.405 3-.405s2.04.135 3 .405c2.295-1.56 3.3-1.23 3.3-1.23.66 1.62.24 2.85.12 3.15.765.84 1.23 1.905 1.23 3.225 0 4.605-2.805 5.625-5.475 5.925.435.375.81 1.095.81 2.22 0 1.605-.015 2.895-.015 3.3 0 .315.225.69.825.57A12.02 12.02 0 0024 12c0-6.63-5.37-12-12-12z" class="social-icon" />
        </g>
      </a>

      <a href="#">
        <g transform="translate(565, 530) scale(1.6)">
          <path d="M20.447 20.452h-3.554v-5.569c0-1.328-.027-3.037-1.852-3.037-1.853 0-2.136 1.445-2.136 2.939v5.667H9.351V9h3.414v1.561h.046c.477-.9 1.637-1.85 3.37-1.85 3.601 0 4.267 2.37 4.267 5.455v6.286zM5.337 7.433c-1.144 0-2.063-.926-2.063-2.065 0-1.138.92-2.063 2.063-2.063 1.14 0 2.064.925 2.064 2.063 0 1.139-.925 2.065-2.064 2.065zm1.782 13.019H3.555V9h3.564v11.452zM22.225 0H1.771C.792 0 0 .774 0 1.729v20.542C0 23.227.792 24 1.771 24h20.451C23.2 24 24 23.227 24 22.271V1.729C24 .774 23.2 0 22.222 0h.003z" class="social-icon" />
        </g>
      </a>

      <a href="#">
        <g transform="translate(620, 530) scale(1.6)">
          <path d="M18.244 2.25h3.308l-7.227 8.26 8.502 11.24H16.17l-5.214-6.817L4.99 21.75H1.68l7.73-8.835L1.254 2.25H8.08l4.713 6.231zm-1.161 17.52h1.833L7.084 4.126H5.117z" class="social-icon" />
        </g>
      </a>

      <a href="#">
        <g transform="translate(675, 530) scale(1.6)">
          <path d="M10 2.5C5.858 2.5 2.5 5.858 2.5 10s3.358 7.5 7.5 7.5 7.5-3.358 7.5-7.5S14.142 2.5 10 2.5zm0 13.125c-3.105 0-5.625-2.52-5.625-5.625S6.895 4.375 10 4.375 15.625 6.895 15.625 10 13.105 15.625 10 15.625zM10 6.25v3.75L7.5 12.5l2.5 2.5V11.25l2.5-2.5L10 6.25z" class="social-icon" />
        </g>
      </a>
    </g>
  </g>

  <!-- Global Overlays -->
  <rect width="1180" height="610" rx="24" filter="url(#noiseFilter)" style="pointer-events:none;" />

  <rect x="0" y="0" width="1180" height="4" fill="var(--scanline-color)" rx="2">
    <animate attributeName="y" values="0;610" dur="6s" repeatCount="indefinite" />
  </rect>

  <rect x="1" y="1" width="1178" height="608" rx="23" fill="none" stroke="url(#shimmer)" stroke-width="2" style="pointer-events:none;" />
</svg>